<svg width="244" height="239" viewBox="0 0 244 239" fill="none" xmlns="http://www.w3.org/2000/svg">
<path d="M156.946 48.9051C151.971 48.8852 147.918 52.8774 147.893 57.8219C147.868 62.7664 151.881 66.7909 156.856 66.8108C166.634 66.85 175.483 72.821 179.242 81.955C181.124 86.53 186.384 88.7186 190.989 86.8431C195.594 84.9677 197.801 79.7385 195.918 75.1634C189.412 59.3516 174.032 48.9735 156.946 48.9051Z" fill="#7AD5EB"/>
<path fill-rule="evenodd" clip-rule="evenodd" d="M33.0898 40.5628C-5.691 67.8797 -10.1354 120.741 18.4485 160.897C32.4372 179.64 50.3504 194.814 70.9371 205.421C99.0191 219.466 128.435 230.355 158.755 237.94L162.183 238.755C165.466 239.534 168.914 238.424 171.115 235.877L173.283 233.369C193.755 209.91 211.615 184.226 226.514 156.807C237.347 136.287 243.309 113.64 243.997 90.5041C244.347 41.122 210.217 0.309292 162.692 0L159.278 0.0526351C137.78 0.833959 117.595 10.082 103.022 25.6099L100.458 28.4534L96.7793 27.5752C74.7491 22.8775 51.6529 27.4943 33.0898 40.5628ZM98.1003 46.3965L100.933 47.3219C104.666 48.5384 108.765 47.2083 111.06 44.0352C123.012 27.5086 142.169 17.7922 162.567 17.9039C199.388 18.1436 226.267 50.2843 225.986 90.1924C225.382 110.41 220.122 130.391 210.614 148.403L206.261 156.207C194.425 176.887 180.766 196.531 165.465 214.862L161.054 220.021L163.064 220.548C134.129 213.309 105.953 202.879 79.1449 189.472C61.0864 180.167 45.282 166.779 33.0409 150.381C9.9572 117.948 13.4564 76.3282 43.4966 55.168C59.3606 43.9998 79.4845 40.7768 98.1003 46.3965Z" fill="#7AD5EB"/>
</svg>
