<svg width="270" height="257" viewBox="0 0 270 257" fill="none" xmlns="http://www.w3.org/2000/svg">
<path fill-rule="evenodd" clip-rule="evenodd" d="M144.377 15.8043L174.846 77.1478C176.372 80.2419 179.319 82.4013 182.74 82.9016L250.954 92.7634C253.716 93.1321 256.203 94.5804 257.9 96.7924C261.084 100.94 260.597 106.812 256.782 110.38L207.342 158.228C204.829 160.598 203.711 164.074 204.368 167.458L216.209 234.977C217.038 240.572 213.222 245.813 207.631 246.721C205.316 247.077 202.947 246.708 200.843 245.668L140.088 213.791C137.036 212.132 133.379 212.132 130.326 213.791L69.1247 245.839C64.007 248.446 57.7448 246.511 54.9557 241.494C53.8901 239.466 53.5217 237.162 53.8901 234.911L65.7305 167.392C66.3225 164.021 65.2042 160.559 62.7572 158.175L13.0539 110.341C9.00184 106.312 8.97553 99.7549 13.0144 95.6996C13.0276 95.6864 13.0407 95.6601 13.0539 95.6469C14.7247 94.1328 16.777 93.1189 19.0004 92.7239L87.2274 82.8621C90.6348 82.3223 93.5686 80.1893 95.121 77.0951L125.564 15.8043C126.787 13.3158 128.958 11.4066 131.589 10.5376C134.234 9.65543 137.128 9.8661 139.615 11.1169C141.654 12.1308 143.325 13.7766 144.377 15.8043Z" stroke="#A2E5F5" stroke-width="19.75" stroke-linecap="round" stroke-linejoin="round"/>
</svg>
