<svg width="122" height="116" viewBox="0 0 122 116" fill="none" xmlns="http://www.w3.org/2000/svg">
<path d="M26.7897 31.3205C21.183 41.3304 12.2643 46.8423 6.86923 43.6316C1.47418 40.4209 1.64576 29.7035 7.25246 19.6935C12.8592 9.68351 21.7778 4.17162 27.1729 7.38232C32.5679 10.593 32.3964 21.3105 26.7897 31.3205Z" fill="#DEECFC"/>
<path d="M65.7491 24.8528C60.1424 34.8627 51.2237 40.3746 45.8287 37.1639C40.4336 33.9532 40.6052 23.2358 46.2119 13.2258C51.8186 3.21584 60.7373 -2.29606 66.1324 0.914641C71.5274 4.12534 71.3558 14.8428 65.7491 24.8528Z" fill="#DEECFC"/>
<path d="M100.067 45.2758C94.4599 55.2858 85.5413 60.7977 80.1462 57.587C74.7512 54.3763 74.9227 43.6588 80.5294 33.6488C86.1361 23.6389 95.0548 18.127 100.45 21.3377C105.845 24.5484 105.673 35.2658 100.067 45.2758Z" fill="#DEECFC"/>
<path d="M117.68 85.4111C112.073 95.4211 103.155 100.933 97.7597 97.7223C92.3646 94.5116 92.5362 83.7941 98.1429 73.7842C103.75 63.7742 112.668 58.2623 118.063 61.473C123.458 64.6837 123.287 75.4012 117.68 85.4111Z" fill="#DEECFC"/>
<path d="M13.456 90.7237C3.14882 81.3807 -2.14999 72.0689 0.820071 66.7662C3.64904 61.7155 13.2849 61.5429 25.4308 65.4521C33.2036 53.5873 47.3091 49.019 57.8678 55.3027C68.4264 61.5863 71.6411 76.4622 65.559 89.3332C74.9164 98.221 79.5893 106.909 76.7603 111.96C73.7902 117.262 63.3173 117.188 50.3141 112.659C52.9315 107.5 47.0279 98.585 36.9756 92.6027C26.9233 86.6203 16.4811 85.8081 13.456 90.7237Z" fill="#DEECFC"/>
</svg>
